<mxfile host="www.draw.io" modified="2019-11-03T18:22:23.239Z" agent="Mozilla/5.0 (Macintosh; Intel Mac OS X 10_14_5) AppleWebKit/537.36 (KHTML, like Gecko) Chrome/76.0.3809.132 Safari/537.36" etag="Y94-B0D3vUD08nC5kTxt" version="12.1.9" type="github" pages="1">
  <diagram id="PTuiXg3LKWEgGaHr2Whp" name="Page-1">
    <mxGraphModel dx="1773" dy="1783" grid="1" gridSize="10" guides="1" tooltips="1" connect="1" arrows="1" fold="1" page="1" pageScale="1" pageWidth="827" pageHeight="1169" math="0" shadow="0">
      <root>
        <mxCell id="0"/>
        <mxCell id="1" parent="0"/>
        <mxCell id="SR8UItn_E_fKGA6fSKFd-1" value="Transport order" style="rounded=0;whiteSpace=wrap;html=1;fillColor=#fff2cc;strokeColor=#d6b656;" vertex="1" parent="1">
          <mxGeometry x="330" y="280" width="120" height="60" as="geometry"/>
        </mxCell>
        <mxCell id="SR8UItn_E_fKGA6fSKFd-2" value="Mobile transport order" style="rounded=0;whiteSpace=wrap;html=1;fillColor=#f5f5f5;strokeColor=#666666;fontColor=#333333;" vertex="1" parent="1">
          <mxGeometry x="330" y="400" width="120" height="60" as="geometry"/>
        </mxCell>
        <mxCell id="SR8UItn_E_fKGA6fSKFd-3" value="" style="endArrow=classic;html=1;entryX=0.5;entryY=0;entryDx=0;entryDy=0;" edge="1" parent="1" source="SR8UItn_E_fKGA6fSKFd-1" target="SR8UItn_E_fKGA6fSKFd-2">
          <mxGeometry width="50" height="50" relative="1" as="geometry">
            <mxPoint x="280" y="400" as="sourcePoint"/>
            <mxPoint x="330" y="350" as="targetPoint"/>
          </mxGeometry>
        </mxCell>
        <mxCell id="SR8UItn_E_fKGA6fSKFd-4" value="WMS" style="rounded=0;whiteSpace=wrap;html=1;" vertex="1" parent="1">
          <mxGeometry x="520" y="440" width="120" height="60" as="geometry"/>
        </mxCell>
        <mxCell id="SR8UItn_E_fKGA6fSKFd-5" value="Mobile WMS" style="rounded=0;whiteSpace=wrap;html=1;" vertex="1" parent="1">
          <mxGeometry x="520" y="560" width="120" height="60" as="geometry"/>
        </mxCell>
        <mxCell id="SR8UItn_E_fKGA6fSKFd-6" value="Contracts" style="rounded=0;whiteSpace=wrap;html=1;fillColor=#f5f5f5;strokeColor=#666666;fontColor=#333333;" vertex="1" parent="1">
          <mxGeometry x="520" y="280" width="120" height="60" as="geometry"/>
        </mxCell>
        <mxCell id="SR8UItn_E_fKGA6fSKFd-7" value="" style="endArrow=classic;html=1;exitX=1;exitY=0.5;exitDx=0;exitDy=0;entryX=0;entryY=0.5;entryDx=0;entryDy=0;" edge="1" parent="1" source="SR8UItn_E_fKGA6fSKFd-1" target="SR8UItn_E_fKGA6fSKFd-6">
          <mxGeometry width="50" height="50" relative="1" as="geometry">
            <mxPoint x="450" y="350" as="sourcePoint"/>
            <mxPoint x="500" y="300" as="targetPoint"/>
          </mxGeometry>
        </mxCell>
        <mxCell id="SR8UItn_E_fKGA6fSKFd-8" value="Workshops" style="rounded=0;whiteSpace=wrap;html=1;fillColor=#ffe6cc;strokeColor=#d79b00;" vertex="1" parent="1">
          <mxGeometry x="720" y="280" width="120" height="60" as="geometry"/>
        </mxCell>
        <mxCell id="SR8UItn_E_fKGA6fSKFd-9" value="Tarrifs" style="rounded=0;whiteSpace=wrap;html=1;fillColor=#ffe6cc;strokeColor=#d79b00;" vertex="1" parent="1">
          <mxGeometry x="810" y="230" width="120" height="60" as="geometry"/>
        </mxCell>
        <mxCell id="SR8UItn_E_fKGA6fSKFd-10" value="eGate" style="rounded=0;whiteSpace=wrap;html=1;" vertex="1" parent="1">
          <mxGeometry x="760" y="440" width="120" height="60" as="geometry"/>
        </mxCell>
        <mxCell id="SR8UItn_E_fKGA6fSKFd-11" value="Monitoring" style="rounded=0;whiteSpace=wrap;html=1;" vertex="1" parent="1">
          <mxGeometry x="720" y="560" width="120" height="60" as="geometry"/>
        </mxCell>
        <mxCell id="SR8UItn_E_fKGA6fSKFd-12" value="Lotting" style="rounded=0;whiteSpace=wrap;html=1;fillColor=#dae8fc;strokeColor=#6c8ebf;" vertex="1" parent="1">
          <mxGeometry x="100" y="280" width="120" height="60" as="geometry"/>
        </mxCell>
        <mxCell id="SR8UItn_E_fKGA6fSKFd-13" value="Transport resourses" style="rounded=0;whiteSpace=wrap;html=1;fillColor=#dae8fc;strokeColor=#6c8ebf;" vertex="1" parent="1">
          <mxGeometry x="100" y="370" width="120" height="60" as="geometry"/>
        </mxCell>
        <mxCell id="SR8UItn_E_fKGA6fSKFd-14" value="eDOcs" style="rounded=0;whiteSpace=wrap;html=1;" vertex="1" parent="1">
          <mxGeometry x="320" y="140" width="120" height="60" as="geometry"/>
        </mxCell>
        <mxCell id="SR8UItn_E_fKGA6fSKFd-15" value="Claiming" style="rounded=0;whiteSpace=wrap;html=1;" vertex="1" parent="1">
          <mxGeometry x="120" y="140" width="120" height="60" as="geometry"/>
        </mxCell>
        <mxCell id="SR8UItn_E_fKGA6fSKFd-16" value="Inspector" style="rounded=0;whiteSpace=wrap;html=1;fillColor=#f5f5f5;strokeColor=#666666;fontColor=#333333;" vertex="1" parent="1">
          <mxGeometry x="-40" y="140" width="120" height="60" as="geometry"/>
        </mxCell>
        <mxCell id="SR8UItn_E_fKGA6fSKFd-17" value="Inspector mobile" style="rounded=0;whiteSpace=wrap;html=1;fillColor=#f5f5f5;strokeColor=#666666;fontColor=#333333;" vertex="1" parent="1">
          <mxGeometry x="-40" y="30" width="120" height="60" as="geometry"/>
        </mxCell>
        <mxCell id="SR8UItn_E_fKGA6fSKFd-18" value="" style="endArrow=classic;html=1;entryX=0.5;entryY=1;entryDx=0;entryDy=0;" edge="1" parent="1" target="SR8UItn_E_fKGA6fSKFd-17">
          <mxGeometry width="50" height="50" relative="1" as="geometry">
            <mxPoint x="20" y="140" as="sourcePoint"/>
            <mxPoint x="50" y="110" as="targetPoint"/>
          </mxGeometry>
        </mxCell>
        <mxCell id="SR8UItn_E_fKGA6fSKFd-19" value="S.S." style="rounded=0;whiteSpace=wrap;html=1;fillColor=#f8cecc;strokeColor=#b85450;" vertex="1" parent="1">
          <mxGeometry x="320" y="20" width="120" height="60" as="geometry"/>
        </mxCell>
        <mxCell id="SR8UItn_E_fKGA6fSKFd-20" value="OEM API" style="rounded=0;whiteSpace=wrap;html=1;" vertex="1" parent="1">
          <mxGeometry x="490" y="110" width="120" height="60" as="geometry"/>
        </mxCell>
        <mxCell id="SR8UItn_E_fKGA6fSKFd-21" value="Widget" style="rounded=0;whiteSpace=wrap;html=1;fillColor=#f8cecc;strokeColor=#b85450;" vertex="1" parent="1">
          <mxGeometry x="120" y="560" width="120" height="60" as="geometry"/>
        </mxCell>
        <mxCell id="SR8UItn_E_fKGA6fSKFd-22" value="TMS" style="rounded=0;whiteSpace=wrap;html=1;fillColor=#f8cecc;strokeColor=#b85450;" vertex="1" parent="1">
          <mxGeometry x="320" y="560" width="120" height="60" as="geometry"/>
        </mxCell>
        <mxCell id="SR8UItn_E_fKGA6fSKFd-23" value="" style="shape=partialRectangle;whiteSpace=wrap;html=1;bottom=0;right=0;fillColor=none;" vertex="1" parent="1">
          <mxGeometry x="780" y="250" width="30" height="30" as="geometry"/>
        </mxCell>
        <mxCell id="SR8UItn_E_fKGA6fSKFd-24" value="" style="endArrow=classic;html=1;exitX=0.5;exitY=1;exitDx=0;exitDy=0;" edge="1" parent="1" source="SR8UItn_E_fKGA6fSKFd-4" target="SR8UItn_E_fKGA6fSKFd-5">
          <mxGeometry width="50" height="50" relative="1" as="geometry">
            <mxPoint x="510" y="560" as="sourcePoint"/>
            <mxPoint x="560" y="510" as="targetPoint"/>
          </mxGeometry>
        </mxCell>
        <mxCell id="SR8UItn_E_fKGA6fSKFd-25" value="Get Companies" style="rounded=1;whiteSpace=wrap;html=1;" vertex="1" parent="1">
          <mxGeometry x="210" y="-130" width="120" height="60" as="geometry"/>
        </mxCell>
        <mxCell id="SR8UItn_E_fKGA6fSKFd-26" value="Get Permissions" style="rounded=1;whiteSpace=wrap;html=1;" vertex="1" parent="1">
          <mxGeometry x="460" y="-125" width="120" height="60" as="geometry"/>
        </mxCell>
        <mxCell id="SR8UItn_E_fKGA6fSKFd-27" value="" style="endArrow=classic;html=1;exitX=0;exitY=0.5;exitDx=0;exitDy=0;entryX=0.575;entryY=1.033;entryDx=0;entryDy=0;entryPerimeter=0;" edge="1" parent="1" source="SR8UItn_E_fKGA6fSKFd-19" target="SR8UItn_E_fKGA6fSKFd-25">
          <mxGeometry width="50" height="50" relative="1" as="geometry">
            <mxPoint x="240" y="90" as="sourcePoint"/>
            <mxPoint x="280" y="-20" as="targetPoint"/>
            <Array as="points">
              <mxPoint x="279" y="50"/>
            </Array>
          </mxGeometry>
        </mxCell>
        <mxCell id="SR8UItn_E_fKGA6fSKFd-28" value="" style="endArrow=classic;html=1;entryX=0.567;entryY=0.983;entryDx=0;entryDy=0;entryPerimeter=0;exitX=1;exitY=0.5;exitDx=0;exitDy=0;" edge="1" parent="1" source="SR8UItn_E_fKGA6fSKFd-19" target="SR8UItn_E_fKGA6fSKFd-26">
          <mxGeometry width="50" height="50" relative="1" as="geometry">
            <mxPoint x="450" y="70" as="sourcePoint"/>
            <mxPoint x="500" y="20" as="targetPoint"/>
            <Array as="points">
              <mxPoint x="528" y="50"/>
            </Array>
          </mxGeometry>
        </mxCell>
        <mxCell id="SR8UItn_E_fKGA6fSKFd-29" value="Get Token" style="rounded=1;whiteSpace=wrap;html=1;" vertex="1" parent="1">
          <mxGeometry x="320" y="-220" width="120" height="60" as="geometry"/>
        </mxCell>
        <mxCell id="SR8UItn_E_fKGA6fSKFd-30" value="" style="endArrow=classic;html=1;entryX=0.5;entryY=1;entryDx=0;entryDy=0;" edge="1" parent="1" source="SR8UItn_E_fKGA6fSKFd-19" target="SR8UItn_E_fKGA6fSKFd-29">
          <mxGeometry width="50" height="50" relative="1" as="geometry">
            <mxPoint x="350" y="10" as="sourcePoint"/>
            <mxPoint x="390" y="-110" as="targetPoint"/>
          </mxGeometry>
        </mxCell>
        <mxCell id="SR8UItn_E_fKGA6fSKFd-32" value="Token" style="text;html=1;strokeColor=none;fillColor=none;align=center;verticalAlign=middle;whiteSpace=wrap;rounded=0;" vertex="1" parent="1">
          <mxGeometry x="240" y="-20" width="40" height="20" as="geometry"/>
        </mxCell>
        <mxCell id="SR8UItn_E_fKGA6fSKFd-33" value="Token" style="text;html=1;strokeColor=none;fillColor=none;align=center;verticalAlign=middle;whiteSpace=wrap;rounded=0;" vertex="1" parent="1">
          <mxGeometry x="340" y="-30" width="40" height="20" as="geometry"/>
        </mxCell>
        <mxCell id="SR8UItn_E_fKGA6fSKFd-34" value="CI" style="text;html=1;strokeColor=none;fillColor=none;align=center;verticalAlign=middle;whiteSpace=wrap;rounded=0;" vertex="1" parent="1">
          <mxGeometry x="490" y="-30" width="40" height="20" as="geometry"/>
        </mxCell>
        <mxCell id="SR8UItn_E_fKGA6fSKFd-36" value="" style="rounded=1;arcSize=10;dashed=1;strokeColor=#000000;fillColor=none;gradientColor=none;dashPattern=8 3 1 3;strokeWidth=2;" vertex="1" parent="1">
          <mxGeometry x="150" y="-240" width="480" height="250" as="geometry"/>
        </mxCell>
        <mxCell id="SR8UItn_E_fKGA6fSKFd-37" value="&lt;font style=&quot;font-size: 12px&quot;&gt;&lt;b&gt;Login&lt;/b&gt;&lt;/font&gt;" style="text;html=1;strokeColor=none;fillColor=none;align=center;verticalAlign=middle;whiteSpace=wrap;rounded=0;" vertex="1" parent="1">
          <mxGeometry x="500" y="-230" width="100" height="20" as="geometry"/>
        </mxCell>
        <mxCell id="SR8UItn_E_fKGA6fSKFd-38" value="DB First" style="rounded=1;whiteSpace=wrap;html=1;" vertex="1" parent="1">
          <mxGeometry x="650" y="-340" width="120" height="60" as="geometry"/>
        </mxCell>
        <mxCell id="SR8UItn_E_fKGA6fSKFd-39" value="PostgressSQL" style="rounded=1;whiteSpace=wrap;html=1;" vertex="1" parent="1">
          <mxGeometry x="650" y="-250" width="120" height="60" as="geometry"/>
        </mxCell>
        <mxCell id="SR8UItn_E_fKGA6fSKFd-40" value="MongoDB" style="rounded=1;whiteSpace=wrap;html=1;" vertex="1" parent="1">
          <mxGeometry x="650" y="-170" width="120" height="60" as="geometry"/>
        </mxCell>
      </root>
    </mxGraphModel>
  </diagram>
</mxfile>
